<?xml version="1.0" encoding="UTF-8" standalone="no"?>
<?xml-stylesheet type="text/css" href="fonts-svg.css" ?>
<!DOCTYPE svg PUBLIC "-//W3C//DTD SVG 1.1//EN"
 "http://www.w3.org/Graphics/SVG/1.1/DTD/svg11.dtd">
<!-- Generated by graphviz version 2.26.3 (20100126.1600)
 -->
<!-- Title: g Pages: 1 -->
<svg width="391pt" height="390pt"
 viewBox="0.00 0.00 391.00 390.00" xmlns="http://www.w3.org/2000/svg" xmlns:xlink="http://www.w3.org/1999/xlink">
  <defs>
    <style type="text/css">
      <![CDATA[
			text {
			  font-family: "Liberation Sans";
			  font-weight: bold;
			}
      ]]>
   </style>
  </defs>
<g id="graph1" class="graph" transform="scale(1 1) rotate(0) translate(4 386)">
<title>g</title>
<polygon fill="white" stroke="white" points="-4,5 -4,-386 388,-386 388,5 -4,5"/>
<!-- N1 -->
<g id="node1" class="node"><title>N1</title>
<polygon fill="#ffffff" stroke="#ffffff" stroke-width="1.5" points="39.5,-259 96.5,-259 108.5,-271 108.5,-283 96.5,-295 39.5,-295 27.5,-283 27.5,-271 39.5,-259"/>
<path fill="#ffffff" stroke="#ffffff" stroke-width="1.5" d="M96.5,-259C102.5,-259 108.5,-265 108.5,-271"/>
<path fill="#ffffff" stroke="#ffffff" stroke-width="1.5" d="M108.5,-283C108.5,-289 102.5,-295 96.5,-295"/>
<path fill="#ffffff" stroke="#ffffff" stroke-width="1.5" d="M39.5,-295C33.5,-295 27.5,-289 27.5,-283"/>
<path fill="#ffffff" stroke="#ffffff" stroke-width="1.5" d="M27.5,-271C27.5,-265 33.5,-259 39.5,-259"/>
<polyline fill="none" stroke="#2e3436" stroke-width="1.5" points="39.5,-259 96.5,-259 "/>
<path fill="none" stroke="#2e3436" stroke-width="1.5" d="M96.5,-259C102.5,-259 108.5,-265 108.5,-271"/>
<polyline fill="none" stroke="#2e3436" stroke-width="1.5" points="108.5,-271 108.5,-283 "/>
<path fill="none" stroke="#2e3436" stroke-width="1.5" d="M108.5,-283C108.5,-289 102.5,-295 96.5,-295"/>
<polyline fill="none" stroke="#2e3436" stroke-width="1.5" points="96.5,-295 39.5,-295 "/>
<path fill="none" stroke="#2e3436" stroke-width="1.5" d="M39.5,-295C33.5,-295 27.5,-289 27.5,-283"/>
<polyline fill="none" stroke="#2e3436" stroke-width="1.5" points="27.5,-283 27.5,-271 "/>
<path fill="none" stroke="#2e3436" stroke-width="1.5" d="M27.5,-271C27.5,-265 33.5,-259 39.5,-259"/>
<text text-anchor="start" x="35.5" y="-275.8" font-size="8.00" fill="#1c2021">name = &#39;U1G2R1&#39;</text>
</g>
<!-- N5 -->
<g id="node3" class="node"><title>N5</title>
<polygon fill="#ffffff" stroke="#ffffff" stroke-width="1.5" points="12,-87 58,-87 70,-99 70,-111 58,-123 12,-123 0,-111 0,-99 12,-87"/>
<path fill="#ffffff" stroke="#ffffff" stroke-width="1.5" d="M58,-87C64,-87 70,-93 70,-99"/>
<path fill="#ffffff" stroke="#ffffff" stroke-width="1.5" d="M70,-111C70,-117 64,-123 58,-123"/>
<path fill="#ffffff" stroke="#ffffff" stroke-width="1.5" d="M12,-123C6,-123 0,-117 0,-111"/>
<path fill="#ffffff" stroke="#ffffff" stroke-width="1.5" d="M0,-99C0,-93 6,-87 12,-87"/>
<polyline fill="none" stroke="#2e3436" stroke-width="1.5" points="12,-87 58,-87 "/>
<path fill="none" stroke="#2e3436" stroke-width="1.5" d="M58,-87C64,-87 70,-93 70,-99"/>
<polyline fill="none" stroke="#2e3436" stroke-width="1.5" points="70,-99 70,-111 "/>
<path fill="none" stroke="#2e3436" stroke-width="1.5" d="M70,-111C70,-117 64,-123 58,-123"/>
<polyline fill="none" stroke="#2e3436" stroke-width="1.5" points="58,-123 12,-123 "/>
<path fill="none" stroke="#2e3436" stroke-width="1.5" d="M12,-123C6,-123 0,-117 0,-111"/>
<polyline fill="none" stroke="#2e3436" stroke-width="1.5" points="0,-111 0,-99 "/>
<path fill="none" stroke="#2e3436" stroke-width="1.5" d="M0,-99C0,-93 6,-87 12,-87"/>
<text text-anchor="start" x="8" y="-103.8" font-size="8.00" fill="#1c2021">name = &#39;Role1&#39;</text>
</g>
<!-- N1&#45;&gt;N5 -->
<g id="edge2" class="edge"><title>N1&#45;&gt;N5</title>
<path fill="none" stroke="#2e3436" stroke-width="2" d="M44.8929,-258.896C31.3211,-246.724 15.4161,-229.398 8,-210 -2.80304,-181.743 0.981475,-170.545 11,-142 12.462,-137.835 14.4828,-133.669 16.7366,-129.714"/>
<polygon fill="#2e3436" stroke="#2e3436" points="20.6919,-123.294 19.6309,-131.45 19.1504,-126.749 17.1832,-129.942 16.7575,-129.68 16.3318,-129.417 18.299,-126.225 13.8842,-127.909 20.6919,-123.294 20.6919,-123.294"/>
<text text-anchor="middle" x="23.5" y="-189.8" font-size="8.00" fill="#2e3436">hasRole</text>
</g>
<!-- N4 -->
<g id="node5" class="node"><title>N4</title>
<polygon fill="#ffffff" stroke="#ffffff" stroke-width="1.5" points="64.5,-173 117.5,-173 129.5,-185 129.5,-197 117.5,-209 64.5,-209 52.5,-197 52.5,-185 64.5,-173"/>
<path fill="#ffffff" stroke="#ffffff" stroke-width="1.5" d="M117.5,-173C123.5,-173 129.5,-179 129.5,-185"/>
<path fill="#ffffff" stroke="#ffffff" stroke-width="1.5" d="M129.5,-197C129.5,-203 123.5,-209 117.5,-209"/>
<path fill="#ffffff" stroke="#ffffff" stroke-width="1.5" d="M64.5,-209C58.5,-209 52.5,-203 52.5,-197"/>
<path fill="#ffffff" stroke="#ffffff" stroke-width="1.5" d="M52.5,-185C52.5,-179 58.5,-173 64.5,-173"/>
<polyline fill="none" stroke="#2e3436" stroke-width="1.5" points="64.5,-173 117.5,-173 "/>
<path fill="none" stroke="#2e3436" stroke-width="1.5" d="M117.5,-173C123.5,-173 129.5,-179 129.5,-185"/>
<polyline fill="none" stroke="#2e3436" stroke-width="1.5" points="129.5,-185 129.5,-197 "/>
<path fill="none" stroke="#2e3436" stroke-width="1.5" d="M129.5,-197C129.5,-203 123.5,-209 117.5,-209"/>
<polyline fill="none" stroke="#2e3436" stroke-width="1.5" points="117.5,-209 64.5,-209 "/>
<path fill="none" stroke="#2e3436" stroke-width="1.5" d="M64.5,-209C58.5,-209 52.5,-203 52.5,-197"/>
<polyline fill="none" stroke="#2e3436" stroke-width="1.5" points="52.5,-197 52.5,-185 "/>
<path fill="none" stroke="#2e3436" stroke-width="1.5" d="M52.5,-185C52.5,-179 58.5,-173 64.5,-173"/>
<text text-anchor="start" x="60.5" y="-189.8" font-size="8.00" fill="#1c2021">name = &#39;Group2&#39;</text>
</g>
<!-- N1&#45;&gt;N4 -->
<g id="edge4" class="edge"><title>N1&#45;&gt;N4</title>
<path fill="none" stroke="#4e9a06" stroke-width="2" d="M72.8777,-258.762C76.1405,-246.562 80.4822,-230.327 84.098,-216.808"/>
<polygon fill="#4e9a06" stroke="#4e9a06" points="86.1293,-209.212 87.452,-217.329 85.6435,-212.964 84.6746,-216.587 84.1915,-216.457 83.7085,-216.328 84.6774,-212.706 80.9311,-215.585 86.1293,-209.212 86.1293,-209.212"/>
<text text-anchor="middle" x="98.5" y="-232.8" font-size="8.00" fill="#4e9a06">hasGroup</text>
</g>
<!-- N6 -->
<g id="node8" class="node"><title>N6</title>
<polygon fill="#ffffff" stroke="#ffffff" stroke-width="1.5" points="178.5,-1 219.5,-1 231.5,-13 231.5,-25 219.5,-37 178.5,-37 166.5,-25 166.5,-13 178.5,-1"/>
<path fill="#ffffff" stroke="#ffffff" stroke-width="1.5" d="M219.5,-1C225.5,-1 231.5,-7 231.5,-13"/>
<path fill="#ffffff" stroke="#ffffff" stroke-width="1.5" d="M231.5,-25C231.5,-31 225.5,-37 219.5,-37"/>
<path fill="#ffffff" stroke="#ffffff" stroke-width="1.5" d="M178.5,-37C172.5,-37 166.5,-31 166.5,-25"/>
<path fill="#ffffff" stroke="#ffffff" stroke-width="1.5" d="M166.5,-13C166.5,-7 172.5,-1 178.5,-1"/>
<polyline fill="none" stroke="#2e3436" stroke-width="1.5" points="178.5,-1 219.5,-1 "/>
<path fill="none" stroke="#2e3436" stroke-width="1.5" d="M219.5,-1C225.5,-1 231.5,-7 231.5,-13"/>
<polyline fill="none" stroke="#2e3436" stroke-width="1.5" points="231.5,-13 231.5,-25 "/>
<path fill="none" stroke="#2e3436" stroke-width="1.5" d="M231.5,-25C231.5,-31 225.5,-37 219.5,-37"/>
<polyline fill="none" stroke="#2e3436" stroke-width="1.5" points="219.5,-37 178.5,-37 "/>
<path fill="none" stroke="#2e3436" stroke-width="1.5" d="M178.5,-37C172.5,-37 166.5,-31 166.5,-25"/>
<polyline fill="none" stroke="#2e3436" stroke-width="1.5" points="166.5,-25 166.5,-13 "/>
<path fill="none" stroke="#2e3436" stroke-width="1.5" d="M166.5,-13C166.5,-7 172.5,-1 178.5,-1"/>
<text text-anchor="start" x="174.5" y="-17.8" font-size="8.00" fill="#1c2021">name = &#39;Role&#39;</text>
</g>
<!-- N5&#45;&gt;N6 -->
<g id="edge20" class="edge"><title>N5&#45;&gt;N6</title>
<path fill="none" stroke="#a40000" stroke-width="2" d="M69.3798,-86.9716C95.7025,-73.1682 132.044,-54.111 159.55,-39.6871"/>
<polygon fill="#a40000" stroke="#a40000" points="166.341,-36.1258 161.267,-42.5979 163.253,-38.3102 159.931,-40.0518 159.699,-39.609 159.467,-39.1662 162.788,-37.4246 158.132,-36.62 166.341,-36.1258 166.341,-36.1258"/>
<text text-anchor="middle" x="132" y="-60.8" font-size="8.00" fill="#a40000">isA</text>
</g>
<!-- N4&#45;&gt;N5 -->
<g id="edge16" class="edge"><title>N4&#45;&gt;N5</title>
<path fill="none" stroke="#204a87" stroke-width="2" d="M52.2336,-179.473C40.083,-173.83 28.0232,-165.656 21,-154 16.6651,-146.806 17.4709,-138.208 20.2006,-130.238"/>
<polygon fill="#204a87" stroke="#204a87" points="23.156,-123.153 23.3834,-131.374 22.1738,-126.807 20.73,-130.267 20.2685,-130.075 19.8071,-129.882 21.2508,-126.422 17.1537,-128.776 23.156,-123.153 23.156,-123.153"/>
<text text-anchor="middle" x="38" y="-146.8" font-size="8.00" fill="#204a87">canHave</text>
</g>
<!-- N2 -->
<g id="node6" class="node"><title>N2</title>
<polygon fill="#ffffff" stroke="#ffffff" stroke-width="1.5" points="284,-87 330,-87 342,-99 342,-111 330,-123 284,-123 272,-111 272,-99 284,-87"/>
<path fill="#ffffff" stroke="#ffffff" stroke-width="1.5" d="M330,-87C336,-87 342,-93 342,-99"/>
<path fill="#ffffff" stroke="#ffffff" stroke-width="1.5" d="M342,-111C342,-117 336,-123 330,-123"/>
<path fill="#ffffff" stroke="#ffffff" stroke-width="1.5" d="M284,-123C278,-123 272,-117 272,-111"/>
<path fill="#ffffff" stroke="#ffffff" stroke-width="1.5" d="M272,-99C272,-93 278,-87 284,-87"/>
<polyline fill="none" stroke="#2e3436" stroke-width="1.5" points="284,-87 330,-87 "/>
<path fill="none" stroke="#2e3436" stroke-width="1.5" d="M330,-87C336,-87 342,-93 342,-99"/>
<polyline fill="none" stroke="#2e3436" stroke-width="1.5" points="342,-99 342,-111 "/>
<path fill="none" stroke="#2e3436" stroke-width="1.5" d="M342,-111C342,-117 336,-123 330,-123"/>
<polyline fill="none" stroke="#2e3436" stroke-width="1.5" points="330,-123 284,-123 "/>
<path fill="none" stroke="#2e3436" stroke-width="1.5" d="M284,-123C278,-123 272,-117 272,-111"/>
<polyline fill="none" stroke="#2e3436" stroke-width="1.5" points="272,-111 272,-99 "/>
<path fill="none" stroke="#2e3436" stroke-width="1.5" d="M272,-99C272,-93 278,-87 284,-87"/>
<text text-anchor="start" x="280" y="-103.8" font-size="8.00" fill="#1c2021">name = &#39;Role2&#39;</text>
</g>
<!-- N4&#45;&gt;N2 -->
<g id="edge14" class="edge"><title>N4&#45;&gt;N2</title>
<path fill="none" stroke="#204a87" stroke-width="2" d="M129.666,-173.352C159.193,-159.892 195.424,-143.42 199,-142 220.328,-133.531 244.455,-125.154 264.487,-118.519"/>
<polygon fill="#204a87" stroke="#204a87" points="271.669,-116.156 265.599,-121.706 268.263,-117.803 264.701,-118.975 264.544,-118.5 264.388,-118.025 267.95,-116.853 263.49,-115.294 271.669,-116.156 271.669,-116.156"/>
<text text-anchor="middle" x="216" y="-146.8" font-size="8.00" fill="#204a87">canHave</text>
</g>
<!-- N9 -->
<g id="node13" class="node"><title>N9</title>
<polygon fill="#ffffff" stroke="#ffffff" stroke-width="1.5" points="159,-87 207,-87 219,-99 219,-111 207,-123 159,-123 147,-111 147,-99 159,-87"/>
<path fill="#ffffff" stroke="#ffffff" stroke-width="1.5" d="M207,-87C213,-87 219,-93 219,-99"/>
<path fill="#ffffff" stroke="#ffffff" stroke-width="1.5" d="M219,-111C219,-117 213,-123 207,-123"/>
<path fill="#ffffff" stroke="#ffffff" stroke-width="1.5" d="M159,-123C153,-123 147,-117 147,-111"/>
<path fill="#ffffff" stroke="#ffffff" stroke-width="1.5" d="M147,-99C147,-93 153,-87 159,-87"/>
<polyline fill="none" stroke="#2e3436" stroke-width="1.5" points="159,-87 207,-87 "/>
<path fill="none" stroke="#2e3436" stroke-width="1.5" d="M207,-87C213,-87 219,-93 219,-99"/>
<polyline fill="none" stroke="#2e3436" stroke-width="1.5" points="219,-99 219,-111 "/>
<path fill="none" stroke="#2e3436" stroke-width="1.5" d="M219,-111C219,-117 213,-123 207,-123"/>
<polyline fill="none" stroke="#2e3436" stroke-width="1.5" points="207,-123 159,-123 "/>
<path fill="none" stroke="#2e3436" stroke-width="1.5" d="M159,-123C153,-123 147,-117 147,-111"/>
<polyline fill="none" stroke="#2e3436" stroke-width="1.5" points="147,-111 147,-99 "/>
<path fill="none" stroke="#2e3436" stroke-width="1.5" d="M147,-99C147,-93 153,-87 159,-87"/>
<text text-anchor="start" x="155" y="-103.8" font-size="8.00" fill="#1c2021">name = &#39;Group&#39;</text>
</g>
<!-- N4&#45;&gt;N9 -->
<g id="edge18" class="edge"><title>N4&#45;&gt;N9</title>
<path fill="none" stroke="#a40000" stroke-width="2" d="M85.3049,-172.785C83.3514,-162.875 82.9613,-150.867 89,-142 95.2088,-132.884 118.009,-123.793 139.598,-116.905"/>
<polygon fill="#a40000" stroke="#a40000" points="146.847,-114.656 140.683,-120.101 143.413,-116.244 139.832,-117.356 139.683,-116.878 139.535,-116.4 143.117,-115.289 138.684,-113.655 146.847,-114.656 146.847,-114.656"/>
<text text-anchor="middle" x="95" y="-146.8" font-size="8.00" fill="#a40000">isA</text>
</g>
<!-- N2&#45;&gt;N6 -->
<g id="edge6" class="edge"><title>N2&#45;&gt;N6</title>
<path fill="none" stroke="#a40000" stroke-width="2" d="M284.36,-86.9716C267.943,-73.8993 245.61,-56.115 227.905,-42.0165"/>
<polygon fill="#a40000" stroke="#a40000" points="221.611,-37.0047 229.58,-39.0365 224.856,-38.9495 227.789,-41.2855 227.478,-41.6767 227.166,-42.0678 224.233,-39.7318 225.375,-44.3169 221.611,-37.0047 221.611,-37.0047"/>
<text text-anchor="middle" x="265" y="-60.8" font-size="8.00" fill="#a40000">isA</text>
</g>
<!-- N3 -->
<g id="node9" class="node"><title>N3</title>
<polygon fill="#ffffff" stroke="#ffffff" stroke-width="1.5" points="246.5,-173 299.5,-173 311.5,-185 311.5,-197 299.5,-209 246.5,-209 234.5,-197 234.5,-185 246.5,-173"/>
<path fill="#ffffff" stroke="#ffffff" stroke-width="1.5" d="M299.5,-173C305.5,-173 311.5,-179 311.5,-185"/>
<path fill="#ffffff" stroke="#ffffff" stroke-width="1.5" d="M311.5,-197C311.5,-203 305.5,-209 299.5,-209"/>
<path fill="#ffffff" stroke="#ffffff" stroke-width="1.5" d="M246.5,-209C240.5,-209 234.5,-203 234.5,-197"/>
<path fill="#ffffff" stroke="#ffffff" stroke-width="1.5" d="M234.5,-185C234.5,-179 240.5,-173 246.5,-173"/>
<polyline fill="none" stroke="#2e3436" stroke-width="1.5" points="246.5,-173 299.5,-173 "/>
<path fill="none" stroke="#2e3436" stroke-width="1.5" d="M299.5,-173C305.5,-173 311.5,-179 311.5,-185"/>
<polyline fill="none" stroke="#2e3436" stroke-width="1.5" points="311.5,-185 311.5,-197 "/>
<path fill="none" stroke="#2e3436" stroke-width="1.5" d="M311.5,-197C311.5,-203 305.5,-209 299.5,-209"/>
<polyline fill="none" stroke="#2e3436" stroke-width="1.5" points="299.5,-209 246.5,-209 "/>
<path fill="none" stroke="#2e3436" stroke-width="1.5" d="M246.5,-209C240.5,-209 234.5,-203 234.5,-197"/>
<polyline fill="none" stroke="#2e3436" stroke-width="1.5" points="234.5,-197 234.5,-185 "/>
<path fill="none" stroke="#2e3436" stroke-width="1.5" d="M234.5,-185C234.5,-179 240.5,-173 246.5,-173"/>
<text text-anchor="start" x="242.5" y="-189.8" font-size="8.00" fill="#1c2021">name = &#39;Group1&#39;</text>
</g>
<!-- N3&#45;&gt;N5 -->
<g id="edge8" class="edge"><title>N3&#45;&gt;N5</title>
<path fill="none" stroke="#204a87" stroke-width="2" d="M234.327,-183.307C205.369,-176.978 165.051,-166.95 131,-154 119.953,-149.799 96.4312,-137.812 75.437,-126.746"/>
<polygon fill="#204a87" stroke="#204a87" points="68.7285,-123.197 76.9362,-123.721 72.277,-124.509 75.5917,-126.262 75.3578,-126.704 75.124,-127.146 71.8093,-125.392 73.7795,-129.687 68.7285,-123.197 68.7285,-123.197"/>
<text text-anchor="middle" x="148" y="-146.8" font-size="8.00" fill="#204a87">canHave</text>
</g>
<!-- N3&#45;&gt;N2 -->
<g id="edge10" class="edge"><title>N3&#45;&gt;N2</title>
<path fill="none" stroke="#204a87" stroke-width="2" d="M280.211,-172.762C285.079,-160.448 291.572,-144.024 296.947,-130.429"/>
<polygon fill="#204a87" stroke="#204a87" points="299.8,-123.212 300.181,-131.428 298.886,-126.883 297.507,-130.371 297.042,-130.187 296.577,-130.003 297.956,-126.516 293.904,-128.946 299.8,-123.212 299.8,-123.212"/>
<text text-anchor="middle" x="309" y="-146.8" font-size="8.00" fill="#204a87">canHave</text>
</g>
<!-- N3&#45;&gt;N9 -->
<g id="edge12" class="edge"><title>N3&#45;&gt;N9</title>
<path fill="none" stroke="#a40000" stroke-width="2" d="M263.242,-172.935C257.353,-163.072 249.215,-151.06 240,-142 234.637,-136.727 228.41,-131.786 222.082,-127.338"/>
<polygon fill="#a40000" stroke="#a40000" points="215.749,-123.061 223.854,-124.462 219.137,-124.745 222.244,-126.844 221.965,-127.258 221.685,-127.673 218.577,-125.574 220.076,-130.055 215.749,-123.061 215.749,-123.061"/>
<text text-anchor="middle" x="255" y="-146.8" font-size="8.00" fill="#a40000">isA</text>
</g>
<!-- N7 -->
<g id="node18" class="node"><title>N7</title>
<polygon fill="#ffffff" stroke="#ffffff" stroke-width="1.5" points="174.5,-345 221.5,-345 233.5,-357 233.5,-369 221.5,-381 174.5,-381 162.5,-369 162.5,-357 174.5,-345"/>
<path fill="#ffffff" stroke="#ffffff" stroke-width="1.5" d="M221.5,-345C227.5,-345 233.5,-351 233.5,-357"/>
<path fill="#ffffff" stroke="#ffffff" stroke-width="1.5" d="M233.5,-369C233.5,-375 227.5,-381 221.5,-381"/>
<path fill="#ffffff" stroke="#ffffff" stroke-width="1.5" d="M174.5,-381C168.5,-381 162.5,-375 162.5,-369"/>
<path fill="#ffffff" stroke="#ffffff" stroke-width="1.5" d="M162.5,-357C162.5,-351 168.5,-345 174.5,-345"/>
<polyline fill="none" stroke="#2e3436" stroke-width="1.5" points="174.5,-345 221.5,-345 "/>
<path fill="none" stroke="#2e3436" stroke-width="1.5" d="M221.5,-345C227.5,-345 233.5,-351 233.5,-357"/>
<polyline fill="none" stroke="#2e3436" stroke-width="1.5" points="233.5,-357 233.5,-369 "/>
<path fill="none" stroke="#2e3436" stroke-width="1.5" d="M233.5,-369C233.5,-375 227.5,-381 221.5,-381"/>
<polyline fill="none" stroke="#2e3436" stroke-width="1.5" points="221.5,-381 174.5,-381 "/>
<path fill="none" stroke="#2e3436" stroke-width="1.5" d="M174.5,-381C168.5,-381 162.5,-375 162.5,-369"/>
<polyline fill="none" stroke="#2e3436" stroke-width="1.5" points="162.5,-369 162.5,-357 "/>
<path fill="none" stroke="#2e3436" stroke-width="1.5" d="M162.5,-357C162.5,-351 168.5,-345 174.5,-345"/>
<text text-anchor="start" x="170.5" y="-361.8" font-size="8.00" fill="#1c2021">name = &#39;User1&#39;</text>
</g>
<!-- N7&#45;&gt;N1 -->
<g id="edge26" class="edge"><title>N7&#45;&gt;N1</title>
<path fill="none" stroke="#5c3566" stroke-width="2" d="M162.313,-355.331C132.888,-348.338 94.2274,-337.388 83,-326 76.8789,-319.791 73.2461,-311.155 71.0935,-302.861"/>
<polygon fill="#5c3566" stroke="#5c3566" points="69.5039,-295.418 74.3711,-302.048 70.7762,-298.981 71.5595,-302.648 71.0705,-302.753 70.5816,-302.857 69.7982,-299.19 67.77,-303.458 69.5039,-295.418 69.5039,-295.418"/>
<text text-anchor="middle" x="113.5" y="-318.8" font-size="8.00" fill="#5c3566">hasRoleInGroup</text>
</g>
<!-- N7&#45;&gt;N4 -->
<g id="edge24" class="edge"><title>N7&#45;&gt;N4</title>
<path fill="none" stroke="#8f5902" stroke-width="2" d="M189.644,-344.761C177.062,-318.075 151.752,-267.298 124,-228 120.86,-223.553 117.256,-219.045 113.611,-214.777"/>
<polygon fill="#8f5902" stroke="#8f5902" points="108.653,-209.135 116.139,-212.541 111.504,-211.622 113.98,-214.439 113.604,-214.769 113.228,-215.099 110.753,-212.282 111.069,-216.997 108.653,-209.135 108.653,-209.135"/>
<text text-anchor="middle" x="168.5" y="-275.8" font-size="8.00" fill="#8f5902">in</text>
</g>
<!-- N7&#45;&gt;N3 -->
<g id="edge22" class="edge"><title>N7&#45;&gt;N3</title>
<path fill="none" stroke="#8f5902" stroke-width="2" d="M205.885,-344.918C219.332,-314.078 246.731,-251.244 262.036,-216.145"/>
<polygon fill="#8f5902" stroke="#8f5902" points="265.109,-209.098 265.204,-217.322 264.068,-212.735 262.569,-216.172 262.111,-215.973 261.652,-215.773 263.151,-212.335 259.017,-214.624 265.109,-209.098 265.109,-209.098"/>
<text text-anchor="middle" x="245.5" y="-275.8" font-size="8.00" fill="#8f5902">in</text>
</g>
<!-- N8 -->
<g id="node23" class="node"><title>N8</title>
<polygon fill="#ffffff" stroke="#ffffff" stroke-width="1.5" points="278.5,-259 335.5,-259 347.5,-271 347.5,-283 335.5,-295 278.5,-295 266.5,-283 266.5,-271 278.5,-259"/>
<path fill="#ffffff" stroke="#ffffff" stroke-width="1.5" d="M335.5,-259C341.5,-259 347.5,-265 347.5,-271"/>
<path fill="#ffffff" stroke="#ffffff" stroke-width="1.5" d="M347.5,-283C347.5,-289 341.5,-295 335.5,-295"/>
<path fill="#ffffff" stroke="#ffffff" stroke-width="1.5" d="M278.5,-295C272.5,-295 266.5,-289 266.5,-283"/>
<path fill="#ffffff" stroke="#ffffff" stroke-width="1.5" d="M266.5,-271C266.5,-265 272.5,-259 278.5,-259"/>
<polyline fill="none" stroke="#2e3436" stroke-width="1.5" points="278.5,-259 335.5,-259 "/>
<path fill="none" stroke="#2e3436" stroke-width="1.5" d="M335.5,-259C341.5,-259 347.5,-265 347.5,-271"/>
<polyline fill="none" stroke="#2e3436" stroke-width="1.5" points="347.5,-271 347.5,-283 "/>
<path fill="none" stroke="#2e3436" stroke-width="1.5" d="M347.5,-283C347.5,-289 341.5,-295 335.5,-295"/>
<polyline fill="none" stroke="#2e3436" stroke-width="1.5" points="335.5,-295 278.5,-295 "/>
<path fill="none" stroke="#2e3436" stroke-width="1.5" d="M278.5,-295C272.5,-295 266.5,-289 266.5,-283"/>
<polyline fill="none" stroke="#2e3436" stroke-width="1.5" points="266.5,-283 266.5,-271 "/>
<path fill="none" stroke="#2e3436" stroke-width="1.5" d="M266.5,-271C266.5,-265 272.5,-259 278.5,-259"/>
<text text-anchor="start" x="274.5" y="-275.8" font-size="8.00" fill="#1c2021">name = &#39;U1G1R2&#39;</text>
</g>
<!-- N7&#45;&gt;N8 -->
<g id="edge28" class="edge"><title>N7&#45;&gt;N8</title>
<path fill="none" stroke="#5c3566" stroke-width="2" d="M226.534,-344.94C235.218,-339.144 244.665,-332.529 253,-326 262.973,-318.187 273.401,-308.994 282.405,-300.694"/>
<polygon fill="#5c3566" stroke="#5c3566" points="288.096,-295.393 284.909,-302.974 285.693,-298.315 282.949,-300.871 282.608,-300.505 282.267,-300.139 285.011,-297.583 280.308,-298.035 288.096,-295.393 288.096,-295.393"/>
<text text-anchor="middle" x="296.5" y="-318.8" font-size="8.00" fill="#5c3566">hasRoleInGroup</text>
</g>
<!-- N8&#45;&gt;N2 -->
<g id="edge30" class="edge"><title>N8&#45;&gt;N2</title>
<path fill="none" stroke="#2e3436" stroke-width="2" d="M325.048,-258.882C329.497,-253.283 333.656,-246.789 336,-240 342.678,-220.653 376.704,-272.265 333,-142 331.56,-137.709 329.45,-133.473 327.045,-129.487"/>
<polygon fill="#2e3436" stroke="#2e3436" points="322.784,-123.046 329.737,-127.439 325.27,-125.898 327.339,-129.025 326.922,-129.301 326.505,-129.577 324.436,-126.45 324.107,-131.163 322.784,-123.046 322.784,-123.046"/>
<text text-anchor="middle" x="367.5" y="-189.8" font-size="8.00" fill="#2e3436">hasRole</text>
</g>
<!-- N8&#45;&gt;N3 -->
<g id="edge32" class="edge"><title>N8&#45;&gt;N3</title>
<path fill="none" stroke="#4e9a06" stroke-width="2" d="M299.789,-258.762C294.921,-246.448 288.428,-230.024 283.053,-216.429"/>
<polygon fill="#4e9a06" stroke="#4e9a06" points="280.2,-209.212 286.096,-214.946 282.044,-212.516 283.423,-216.003 282.958,-216.187 282.493,-216.371 281.114,-212.883 279.819,-217.428 280.2,-209.212 280.2,-209.212"/>
<text text-anchor="middle" x="310.5" y="-232.8" font-size="8.00" fill="#4e9a06">hasGroup</text>
</g>
</g>
</svg>
